HIERARCHY
ROOT hip
{
	OFFSET 0.000000 0.000000 0.000000 
	CHANNELS 6 Xposition Yposition Zposition Xrotation Zrotation Yrotation
	JOINT abdomen
	{
		OFFSET 0.000000 3.402643 0.000000 
		CHANNELS 3 Xrotation Zrotation Yrotation
		JOINT chest
		{
			OFFSET 0.000000 8.438565 -0.680529 
			CHANNELS 3 Xrotation Zrotation Yrotation
			JOINT neck
			{
				OFFSET 0.000000 10.207942 -0.272212 
				CHANNELS 3 Xrotation Zrotation Yrotation
				JOINT head
				{
					OFFSET 0.000000 3.130431 0.000000 
					CHANNELS 3 Xrotation Zrotation Yrotation
					End Site
					{
						OFFSET 0.000000 3.130435 0.000000 
					}
				}
			}
			JOINT lCollar
			{
				OFFSET 3.470700 6.669187 -0.816635 
				CHANNELS 3 Yrotation Zrotation Xrotation
				JOINT lShldr
				{
					OFFSET 3.198488 0.000000 0.000000 
					CHANNELS 3 Zrotation Yrotation Xrotation
					JOINT lForeArm
					{
						OFFSET 10.139888 0.000000 0.000000 
						CHANNELS 3 Yrotation Zrotation Xrotation
						JOINT lHand
						{
							OFFSET 8.370511 0.000000 0.000000 
							CHANNELS 3 Zrotation Yrotation Xrotation
							End Site
							{
								OFFSET 4.083176 0.000000 0.000000 
							}
						}
					}
				}
			}
			JOINT rCollar
			{
				OFFSET -3.470700 6.669187 -0.816635 
				CHANNELS 3 Yrotation Zrotation Xrotation
				JOINT rShldr
				{
					OFFSET -3.198488 0.000000 0.000000 
					CHANNELS 3 Zrotation Yrotation Xrotation
					JOINT rForeArm
					{
						OFFSET -10.139888 0.000000 0.000000 
						CHANNELS 3 Yrotation Zrotation Xrotation
						JOINT rHand
						{
							OFFSET -8.370511 0.000000 0.000000 
							CHANNELS 3 Zrotation Yrotation Xrotation
							End Site
							{
								OFFSET -4.083176 0.000000 0.000000 
							}
						}
					}
				}
			}
		}
	}
	JOINT lThigh
	{
		OFFSET 5.308129 -1.633274 1.361059 
		CHANNELS 3 Xrotation Zrotation Yrotation
		JOINT lShin
		{
			OFFSET -2.041588 -20.007561 0.000000 
			CHANNELS 3 Xrotation Zrotation Yrotation
			JOINT lFoot
			{
				OFFSET 0.000000 -19.190928 -1.224953 
				CHANNELS 3 Xrotation Yrotation Zrotation
				End Site
				{
					OFFSET 0.000000 -2.449906 4.627600 
				}
			}
		}
	}
	JOINT rThigh
	{
		OFFSET -5.308129 -1.633274 1.361059 
		CHANNELS 3 Xrotation Zrotation Yrotation
		JOINT rShin
		{
			OFFSET 2.041588 -20.007561 0.000000 
			CHANNELS 3 Xrotation Zrotation Yrotation
			JOINT rFoot
			{
				OFFSET 0.000000 -19.190928 -1.224953 
				CHANNELS 3 Xrotation Yrotation Zrotation
				End Site
				{
					OFFSET 0.000000 -2.449906 4.627600 
				}
			}
		}
	}
}
MOTION
Frames: 8
Frame Time: 0.033333
-123.279549 47.187904 -124.706375 17.329437 -7.938234 21.145138 23.741175 -0.497631 -0.282872 -20.839844 0.000000 0.000000 -6.183092 0.088546 16.379089 -2.520832 -1.255077 0.218355 -4.754609 -0.109184 -0.002653 -67.796494 -15.819411 43.626701 -23.777287 -0.569815 -34.939541 6.184084 -6.267547 0.604090 4.754609 0.109184 -0.002672 78.105103 -5.943053 25.171263 35.896442 0.063050 5.673795 -4.080698 -1.265609 -0.314368 -57.986290 19.003441 -0.363210 25.120369 -4.086971 -8.775964 4.132365 -0.692363 -8.268413 -44.523823 -6.299413 9.241219 49.874168 1.704401 -5.407007 -17.610949 -3.263594 12.840470 
-122.997292 45.969978 -124.686600 19.657768 -9.372598 20.957617 23.897114 -0.450349 -0.434262 -20.839844 0.000000 0.000000 -8.005565 1.415964 15.789164 -2.520832 -1.255077 0.218355 -4.754609 -0.109184 -0.002653 -65.253059 -20.654263 46.475582 -34.566177 -0.616223 -23.995880 12.284982 -5.242702 0.302134 4.754609 0.109184 -0.002672 71.144852 -15.256892 31.014906 56.758293 0.101535 3.273860 -5.927049 -2.712853 -0.014640 -59.653690 19.481161 -1.903930 11.932490 -4.677601 -8.239409 5.717090 -0.045296 -6.963550 -50.899601 -6.006454 9.587582 56.544235 1.353726 -4.513959 -17.287256 -3.732774 15.507432 
-122.323067 44.445919 -124.370804 21.815245 -10.581297 20.327148 23.964903 -0.367714 -0.569005 -20.839844 0.000000 0.000000 -8.971452 2.675751 15.410409 -2.520832 -1.255077 0.218355 -4.754609 -0.109184 -0.002653 -62.058395 -26.200523 47.837955 -48.155045 -0.446763 -11.193607 13.806459 -1.893181 0.240004 4.754609 0.109184 -0.002672 63.052406 -25.905405 36.225281 76.091171 -0.009212 5.742466 -7.727590 0.052185 -0.002945 -64.417297 19.792955 -1.987206 10.687888 -4.793584 -9.027609 6.028167 -0.036219 -5.940023 -57.156319 -5.820211 10.149395 64.320778 0.898790 -3.600711 -17.711355 -3.942727 16.429012 
-121.346809 42.788834 -123.816925 21.719345 -10.497005 20.046804 24.237450 -0.290222 -0.772113 -20.839844 0.000000 0.000000 -7.394225 3.315407 15.155043 -2.520832 -1.255077 0.218355 -4.754609 -0.109184 -0.002653 -60.478394 -30.697271 50.275951 -62.344593 -0.277382 -0.386309 10.724241 0.598915 0.248827 4.754609 0.109184 -0.002672 54.159561 -39.458897 42.526783 91.546852 -0.283907 13.567884 -9.277638 4.535599 -0.223540 -69.882881 19.538580 -2.351513 19.383080 -4.521900 -10.279032 8.952152 -0.886896 -7.692083 -60.680008 -6.142712 11.311785 72.656006 0.412906 -2.418876 -17.586792 -3.981347 16.781542 
-120.322807 40.782982 -123.189423 22.132635 -10.430864 19.820650 24.304705 -0.249131 -0.989573 -20.839844 0.000000 0.000000 -6.507565 3.450264 14.911809 -2.520832 -1.255077 0.218355 -4.754609 -0.109184 -0.002653 -61.911026 -35.714924 55.320114 -74.844055 -0.150433 7.503134 6.839040 1.171587 0.140534 4.754609 0.109184 -0.002672 44.389194 -52.844597 50.082836 102.635963 -0.570125 22.457373 -10.350860 9.306070 -0.565974 -76.807152 18.797260 -4.502779 30.081259 -4.049493 -10.579501 13.828476 -1.435792 -9.765385 -65.343376 -6.798083 13.063643 81.904259 -0.116040 -0.758309 -16.346468 -4.289100 19.387976 
-119.326233 38.797443 -122.461945 21.846312 -9.768279 20.101330 24.469341 -0.257423 -1.241485 -20.839844 0.000000 0.000000 -5.665242 3.043510 14.859162 -2.520832 -1.255077 0.218355 -4.754609 -0.109184 -0.002653 -69.208801 -39.268990 66.710846 -81.900055 -0.048289 14.010322 4.430472 -0.571843 0.026622 4.754609 0.109184 -0.002672 29.928202 -64.070969 64.079903 109.773338 -0.699744 26.535969 -11.508883 14.440487 -1.054793 -83.020439 18.914536 -2.525712 42.481632 -3.714831 -14.263985 14.142556 -1.142560 -7.568031 -68.637497 -8.008530 15.131586 90.312057 -0.654338 0.775881 -14.396485 -4.526015 22.592262 
-118.413452 37.014977 -121.679108 20.629948 -8.719335 20.727026 24.682280 -0.299155 -1.542286 -20.839844 0.000000 0.000000 -4.199714 2.106407 14.544848 -2.520832 -1.255077 0.218355 -4.754609 -0.109184 -0.002653 -80.581268 -41.691257 83.381432 -82.274422 0.010303 18.270021 3.631914 -4.013772 -0.036278 4.754609 0.109184 -0.002672 11.455248 -70.321358 84.719368 112.613922 -0.735299 27.571520 -13.600181 17.276823 -1.568754 -87.616287 19.628742 -0.350072 54.439072 -3.237306 -17.442085 10.403880 -0.630424 -4.253898 -69.691231 -9.151423 17.241594 97.331070 -1.114488 1.322785 -13.625937 -4.775069 24.815695 
-117.638199 35.508675 -120.920624 18.796570 -7.863780 21.347158 24.913937 -0.312162 -1.863527 -20.839844 0.000000 0.000000 -2.151063 1.066850 14.200591 -2.520832 -1.255077 0.218355 -4.754609 -0.109184 -0.002653 -93.492516 -42.024475 102.127640 -77.910881 0.046433 21.759739 3.734002 -7.867293 -0.135428 4.754609 0.109184 -0.002672 -0.386790 -71.293846 101.079926 112.558075 -0.729492 27.199121 -17.342545 15.585841 -1.869616 -90.296074 20.915913 1.331787 63.860233 -2.809887 -20.024517 6.613377 -0.430439 -1.627536 -68.929390 -9.590953 19.027899 102.834755 -1.505676 1.150714 -14.011105 -5.134774 26.132328 
